<?xml version="1.0" encoding="UTF-8" standalone="no"?>
<svg
   width="auto"
   height="auto"
   viewBox="0 0 210 297"
   version="1.1"
   id="svg5"
   xmlns="http://www.w3.org/2000/svg"
   xmlns:svg="http://www.w3.org/2000/svg">
  <g
     id="layer1">
    <path
       id="path1218"
       style="fill:#6f916f;stroke-width:0.169886"
       d="m 126.63354,87.599066 c -1.33509,0 -1.65914,0.46777 -3.43158,4.953251 -2.00088,5.063797 -3.1699,7.679263 -6.36543,14.243913 -4.15901,8.5439 -5.56616,12.0505 -6.8522,17.07359 -1.24676,4.86971 -1.71858,8.87165 -1.7055,14.46192 l 0.01,4.09884 -1.12815,-1.85979 c -5.17647,-8.53409 -11.804807,-15.15561 -19.940402,-19.91985 -3.190394,-1.86831 -8.565558,-4.33037 -15.235691,-6.97862 -3.690788,-1.46535 -8.743822,-3.53541 -11.229097,-4.6002 -3.601422,-1.54299 -4.679113,-1.93611 -5.308952,-1.93611 -1.04673,0 -1.469919,0.40799 -1.469919,1.41715 0,0.62414 0.150166,0.95019 0.976851,2.12126 0.537263,0.76109 1.503539,2.13009 2.147138,3.04236 3.685009,5.22335 5.814027,9.62846 9.035504,18.69482 2.536007,7.13719 3.634489,9.84554 5.527944,13.62841 2.423121,4.84106 4.860009,8.69203 8.220248,12.99067 0.700835,0.89656 1.274152,1.66472 1.274152,1.70716 0,0.0424 -0.363135,-0.0647 -0.806967,-0.23824 -1.493111,-0.58386 -7.070097,-2.38495 -9.799329,-3.1648 -18.250055,-5.21476 -34.115861,-6.48319 -47.57384,-3.80287 -4.656736,0.92744 -5.867057,1.57159 -5.867057,3.12266 0,1.37083 0.29793,1.57418 7.699968,5.2542 10.134128,5.03832 16.238399,8.78507 25.682716,15.76427 12.510703,9.2452 14.948752,10.87822 20.131546,13.48308 7.274803,3.65629 14.693195,5.54982 24.888032,6.35249 h 3.34e-4 c 30.908571,-0.24677 66.700821,-6.49619 89.359941,-25.15647 2.24756,-1.87391 6.87701,-6.41852 8.79096,-8.63003 6.8904,-7.96154 10.81184,-16.26485 12.27164,-25.984 0.63705,-4.2389 0.63783,-10.0302 0.002,-12.50922 -0.28701,-1.11894 -0.92422,-2.15149 -1.66768,-2.70225 -0.38258,-0.28342 -0.72811,-0.3557 -1.69886,-0.3557 -1.07832,0 -1.38499,0.0802 -2.66277,0.69613 -0.79422,0.38284 -4.92246,3.02354 -9.17387,5.86839 -4.25141,2.84485 -9.05397,5.99741 -10.67265,7.00549 -4.15487,2.58759 -9.55164,5.88199 -9.63542,5.88199 -0.0388,0 0.34049,-0.63071 0.8428,-1.40157 1.2428,-1.9072 2.47323,-4.28955 4.45354,-8.62173 0.91831,-2.00891 3.01537,-6.32827 4.65994,-9.59859 4.24935,-8.45009 5.98395,-12.71975 7.37579,-18.15595 1.47981,-5.779821 1.13756,-7.910853 -1.27116,-7.916309 -1.29515,-0.003 -2.00645,0.365521 -6.48953,3.358575 -4.82642,3.222274 -7.57184,4.869814 -14.06673,8.442224 -11.49085,6.32036 -16.46894,9.77221 -22.60685,15.67634 l -2.13519,2.05424 -0.19909,-2.11197 c -0.46156,-4.89753 -1.52038,-8.27543 -5.00169,-15.95738 -2.70206,-5.96245 -3.27772,-7.38004 -5.5525,-13.675862 -2.0014,-5.539175 -2.35982,-6.115912 -3.80253,-6.115912 z"/>
    <path
       id="path1896"
       style="fill:#374837;stroke-width:0.169886"
       d="m 121.78441,112.59989 c -0.13899,-0.009 -0.29633,-0.008 -0.48013,0.002 -0.6953,0.0379 -1.2289,0.86372 -2.24735,3.47803 -2.9196,7.49439 -4.71906,14.78729 -5.95797,24.14809 -0.62432,4.71727 -1.37402,14.35382 -1.37402,17.66156 0,0.79783 -0.0573,1.44999 -0.12742,1.44934 -0.0701,-6.4e-4 -0.46385,-1.24296 -0.87498,-2.76065 -0.93653,-3.45716 -2.40222,-7.91747 -3.93327,-11.96903 -1.47612,-3.90625 -1.57555,-4.09605 -2.30806,-4.40212 -0.66969,-0.27981 -1.15717,-0.18808 -1.71512,0.32252 -0.68538,0.62719 -0.65206,1.22713 0.19543,3.51917 0.42696,1.15469 0.75131,2.12448 0.72069,2.1551 -0.0306,0.0306 -0.45271,-0.61334 -0.93769,-1.43109 -0.48497,-0.81776 -1.54863,-2.41932 -2.36381,-3.55899 -2.049696,-2.86555 -7.494601,-9.70049 -8.017513,-10.06411 -1.522743,-1.0589 -3.171196,0.11774 -2.480608,1.77053 0.14272,0.34157 1.395198,2.04915 2.783218,3.79457 7.363353,9.25938 8.694253,11.5544 11.446433,19.73736 0.93972,2.79407 2.53825,8.4051 3.09744,10.87273 l 0.25018,1.10427 -0.54317,-0.67689 c -2.64642,-3.29782 -7.163931,-8.0654 -10.258885,-10.82692 -6.815475,-6.08122 -13.673986,-10.32658 -16.683047,-10.32658 -1.142284,0 -1.887331,0.59433 -1.887331,1.50608 0,0.85287 0.374614,1.32923 1.148391,1.45996 0.408921,0.0691 0.843824,0.31606 1.202145,0.68254 0.30875,0.31578 1.901099,1.59252 3.538417,2.8373 5.742157,4.36553 6.323736,4.83041 8.507596,6.80375 5.762052,5.20659 12.899154,13.48199 16.447794,19.07041 l 0.64537,1.01601 -0.75255,-0.655 c -3.65952,-3.18501 -6.53054,-5.35477 -12.049655,-9.10717 -7.315922,-4.97398 -11.10529,-7.99966 -15.294757,-12.21158 -5.250098,-5.2782 -8.632228,-10.05765 -12.386449,-17.50394 -0.922587,-1.8299 -1.877761,-3.51456 -2.122585,-3.74348 -0.446901,-0.41785 -1.21413,-0.54229 -1.846519,-0.29963 -0.4431,0.17004 -0.840712,1.2372 -0.700782,1.88037 0.142642,0.65559 2.910216,6.21673 4.243843,8.5275 2.623249,4.54531 6.029592,9.06019 9.656652,12.79889 0.850841,0.87704 1.393978,1.54076 1.207123,1.47523 -0.186875,-0.0655 -1.295405,-0.46575 -2.463353,-0.88959 -6.675315,-2.42233 -15.965628,-4.33573 -27.0219,-5.5651 -5.789088,-0.64371 -6.959437,-0.70217 -7.584501,-0.37893 -0.704385,0.36424 -0.972866,1.1362 -0.657645,1.89065 0.27846,0.66644 0.787189,0.86212 2.645848,1.01633 3.371482,0.27973 15.442488,2.15669 20.386373,3.17011 7.068447,1.44891 12.231617,3.18146 17.653591,5.92379 6.555835,3.31583 11.946163,7.33617 20.400976,15.21546 4.38573,4.08721 7.4481,7.21188 7.0682,7.21188 -0.6666,0 -4.34827,-0.91414 -6.63453,-1.6471 -5.296191,-1.69794 -9.755374,-3.78824 -19.121181,-8.9645 -12.320742,-6.80935 -22.713561,-11.60809 -31.59888,-14.59033 -3.958911,-1.32875 -7.632408,-2.3187 -8.608796,-2.31934 -2.140107,-0.002 -2.392496,2.61907 -0.286683,2.97666 2.118854,0.3598 6.458467,1.82605 12.495279,4.22227 9.866229,3.91629 15.52736,6.66169 28.253909,13.70075 10.232553,5.65963 16.721302,8.3249 23.706452,9.73828 18.28109,6.57897 16.20213,-2.11207 33.12056,-12.83141 3.02206,-1.89109 5.37261,-3.25404 13.42103,-7.78292 13.21586,-7.43666 18.34006,-10.81036 24.41885,-16.07651 5.09247,-4.41165 8.62437,-8.85155 11.40231,-14.33383 1.53358,-3.02657 1.68702,-3.80042 0.9085,-4.57897 -0.33426,-0.33425 -0.7052,-0.50984 -1.0754,-0.52525 -0.37019,-0.0154 -0.73963,0.12942 -1.07043,0.43599 -0.25426,0.23565 -0.73409,1.01924 -1.06642,1.74134 -0.92884,2.01814 -2.652,4.97561 -3.98272,6.83527 -4.42917,6.18957 -11.98277,12.39457 -22.99406,18.88892 -1.72041,1.01467 -3.60351,1.542 -13.33609,7.57653 -4.34993,2.6971 -11.66759,8.28971 -17.00433,10.59633 -2.03238,0.87842 -6.80203,3.29665 -7.98651,2.88054 -1.68736,-0.59277 0.78751,-4.86188 2.16567,-9.76159 1.94179,-3.41191 5.6376,-7.94326 10.16133,-12.41034 4.41328,-4.35799 8.76152,-7.76185 16.14651,-12.63929 2.61623,-1.7279 5.49352,-3.70567 6.39397,-4.39515 2.12028,-1.62355 3.99996,-3.60308 5.27114,-5.55084 2.01529,-3.08801 7.49072,-14.78219 10.03026,-21.42294 0.91593,-2.3951 0.95765,-2.97777 0.25981,-3.61639 -0.55796,-0.5106 -1.04511,-0.60234 -1.7148,-0.32252 -0.70109,0.29293 -0.79118,0.45333 -2.06086,3.67346 -2.438,6.18314 -7.61324,17.15656 -9.34243,19.80936 -1.90285,2.91923 -3.23839,4.04746 -10.53595,8.90045 -5.35302,3.55986 -8.47016,5.81648 -11.39599,8.24978 -2.06109,1.71411 -6.36218,5.67789 -7.03669,6.48489 -0.83135,0.99463 -2.71818,2.9739 -2.71818,2.85124 0,-0.2796 3.63109,-7.54603 4.85902,-9.72368 3.45399,-6.12546 7.26381,-11.5309 12.06492,-17.11871 1.20364,-1.40087 5.13227,-5.52911 8.73057,-9.17387 6.2998,-6.38115 8.94139,-9.31022 9.33878,-10.35544 0.23953,-0.63003 0.0876,-1.31737 -0.38756,-1.75196 -1.05008,-0.96052 -1.87269,-0.59644 -3.6081,1.59767 -0.72827,0.92075 -4.08509,4.46469 -7.45973,7.87516 -8.81857,8.91221 -11.31204,11.76163 -15.7573,18.00796 -6.40132,8.99491 -11.65456,19.6684 -15.67767,31.85372 -0.58614,1.77531 -1.39444,4.48925 -1.79608,6.03097 -0.40165,1.54172 -0.78147,2.86393 -0.84413,2.9385 -0.0627,0.0745 -0.2476,-0.28977 -0.41111,-0.80962 -0.27249,-0.86639 -0.29051,-1.7272 -0.21634,-10.32857 0.0601,-6.96791 0.14987,-10.00257 0.3494,-11.78819 0.89089,-7.97207 2.48954,-13.3077 6.24001,-20.82735 3.20886,-6.43371 6.32392,-10.8912 9.23359,-13.21298 0.52135,-0.41601 1.06227,-0.99765 1.20214,-1.2924 0.53556,-1.12861 -0.19711,-2.2709 -1.45631,-2.2709 -0.53565,0 -0.86201,0.17351 -1.90392,1.01168 -2.85764,2.29888 -5.17282,5.31457 -8.2219,10.71048 -3.44207,6.09134 -5.86691,12.07931 -7.25834,17.92302 l -0.24288,1.01932 -0.0139,-1.04852 c -0.008,-0.57663 0.10065,-2.48786 0.24089,-4.24716 1.08164,-13.56942 2.98674,-22.72965 6.79447,-32.66863 0.93062,-2.42904 1.01597,-3.23415 0.40613,-3.83008 -0.29624,-0.28948 -0.54693,-0.41609 -0.9639,-0.44429 z" />
    <path
       style="fill:#000000; stroke-width:0.169886"
       d="m 94.977121,193.91881 c -12.315345,-0.42717 -21.378578,-2.55562 -29.936556,-7.03042 -4.312209,-2.25478 -7.950803,-4.68371 -16.442444,-10.9761 -7.674639,-5.68699 -12.420871,-8.93573 -17.413361,-11.91923 -4.409569,-2.63516 -6.426138,-3.68737 -15.760563,-8.22354 -2.685571,-1.30508 -3.456289,-2.23519 -2.870343,-3.46393 0.489799,-1.02711 2.746557,-1.83829 7.248514,-2.6054 5.449568,-0.92858 13.135524,-1.28422 18.942339,-0.87648 10.581201,0.74298 22.363967,3.25421 34.23212,7.29579 1.915469,0.6523 3.626472,1.24165 3.802228,1.30968 0.175756,0.068 -0.228423,-0.54667 -0.898172,-1.36602 -3.255288,-3.98237 -6.766006,-9.48186 -9.114798,-14.27821 -1.658992,-3.38775 -2.85125,-6.34403 -5.001564,-12.40171 -2.26396,-6.37784 -3.103795,-8.44357 -4.888165,-12.02336 -1.493903,-2.99705 -3.587209,-6.33789 -6.599538,-10.53261 -1.075543,-1.49771 -1.240164,-2.25183 -0.625702,-2.86629 0.644454,-0.64446 1.387882,-0.46837 5.500747,1.30292 2.095131,0.90231 7.020185,2.92353 10.944562,4.4916 9.627631,3.84694 12.680202,5.25198 16.797589,7.73163 8.015341,4.82714 14.586895,11.5326 19.607806,20.00734 0.70552,1.19086 1.29535,2.14648 1.31072,2.12358 0.0155,-0.0229 -0.0423,-0.88256 -0.12818,-1.91038 -0.32543,-3.89521 0.0925,-10.06547 0.9831,-14.51443 1.23706,-6.17972 2.74041,-10.10305 8.10878,-21.16172 2.80938,-5.787261 4.05919,-8.605051 5.71205,-12.878375 0.56638,-1.464358 1.21506,-3.026449 1.44152,-3.471312 1.08672,-2.134958 2.6347,-2.254162 3.70083,-0.28499 0.24872,0.45938 1.10374,2.637328 1.90005,4.839885 1.9751,5.463097 3.15476,8.376943 5.29089,13.068942 2.18703,4.80381 2.88777,6.53579 3.8,9.39244 0.8609,2.69582 1.36421,5.25798 1.50038,7.63776 0.0575,1.00496 0.14468,1.82719 0.19377,1.82719 0.0491,0 1.12679,-1.01558 2.39492,-2.25685 6.00396,-5.87675 10.95248,-9.30405 23.07281,-15.98 6.14487,-3.38463 8.60431,-4.868131 13.99152,-8.439513 4.54326,-3.011897 5.47215,-3.443699 6.53655,-3.038587 0.34666,0.131939 0.79139,0.456666 0.9883,0.721618 0.58329,0.784841 0.46587,3.287347 -0.29626,6.313495 -1.52174,6.042327 -3.44375,10.745327 -8.19259,20.046597 -1.24034,2.42938 -3.13393,6.32827 -4.20797,8.66421 -2.21439,4.81608 -3.21241,6.70922 -4.71511,8.94407 -1.0222,1.5202 -1.03447,1.55157 -0.47382,1.21073 0.31657,-0.19244 1.98988,-1.20961 3.71848,-2.26038 6.1416,-3.73333 10.54021,-6.55751 17.66351,-11.34108 3.96853,-2.66501 7.78614,-5.11647 8.48357,-5.44768 2.59412,-1.23194 4.27153,-0.84696 5.26472,1.20828 0.76537,1.58385 0.93653,2.82845 0.92845,6.75169 -0.0234,11.34312 -3.72268,21.53045 -11.19693,30.83439 -6.64827,8.27576 -16.81835,16.43077 -26.60461,21.33323 -5.88218,2.9467 -10.08468,4.26938 -19.93674,6.27479 -16.33333,4.56723 -32.53536,8.644 -48.757409,8.21671 z m 9.258809,-2.45348 c 2.8385,-0.20542 8.29468,-0.95723 9.33841,-1.28675 0.13721,-0.0433 -1.3214,-0.60324 -3.24137,-1.24427 -6.04655,-2.01878 -12.265764,-4.6727 -17.224599,-7.35025 -4.172527,-2.25298 -6.730266,-3.83152 -14.695179,-9.06933 -6.467566,-4.25315 -11.523832,-7.14699 -15.629553,-8.94523 -4.570842,-2.00197 -7.98363,-2.96851 -13.877441,-3.93026 -1.979622,-0.32303 -3.756155,-0.67127 -3.947854,-0.77386 -0.499386,-0.26726 -0.620328,-0.93641 -0.266776,-1.47599 0.288979,-0.44104 0.313843,-0.44592 1.760063,-0.34515 3.472476,0.24196 9.21194,1.46919 12.995681,2.77879 5.902297,2.04284 11.308808,4.9647 21.259348,11.48925 10.40908,6.82522 15.165286,9.48482 22.17018,12.39724 4.44496,1.84809 12.32622,4.67149 12.51449,4.48323 0.176,-0.17601 -3.58164,-4.801 -6.51972,-8.02462 -9.880497,-9.27684 -21.56864,-16.10433 -30.9694,-19.83152 -8.943467,-3.53881 -19.870447,-6.54726 -29.395002,-8.09314 -9.962238,-1.61691 -18.082859,-1.8016 -26.411373,-0.60068 -2.95811,0.42654 -6.330704,1.16173 -6.609847,1.44087 -0.09521,0.0952 1.000467,0.70337 2.802031,1.55527 12.099415,5.72137 18.702463,9.82694 33.694816,20.95035 10.136525,7.52067 15.765695,10.70827 22.946753,12.99392 7.957416,2.53276 19.054165,3.62407 29.306342,2.88213 z m 22.11183,-3.28223 c 5.38452,-2.10436 8.59449,-3.00339 16.4524,-4.60788 8.17312,-1.66885 11.57428,-2.59438 15.71449,-4.27629 11.52695,-4.68266 24.63835,-15.0092 31.88452,-25.11227 5.74504,-8.01011 8.83361,-17.40226 8.85483,-26.927 0.009,-4.06803 -0.43655,-6.16276 -1.3603,-6.39461 -0.72155,-0.1811 -2.74745,1.00107 -9.56397,5.58087 -8.02503,5.39176 -10.75487,7.13892 -19.452,12.44972 -14.85019,9.06809 -20.91952,13.17088 -27.09689,18.31717 -2.9668,2.47159 -9.05135,8.50224 -11.14336,11.04461 -5.83417,7.09017 -9.6935,14.39147 -10.67934,20.20383 -0.0992,0.585 -0.0756,0.63708 0.28828,0.63708 0.25366,0 0.69978,-0.31284 1.23938,-0.8691 2.3395,-2.41179 7.8807,-6.96667 12.98992,-10.67775 6.58101,-4.78012 11.88266,-8.19472 22.17018,-14.27907 7.19011,-4.25243 8.93731,-5.32304 11.60559,-7.1114 9.36121,-6.27412 15.87669,-13.06368 20.06577,-20.90979 0.57166,-1.07073 1.20392,-2.12191 1.40497,-2.33594 0.62722,-0.66764 1.53782,-0.41746 1.75431,0.48198 0.0831,0.34515 -0.14865,0.94241 -1.02165,2.63324 -2.28603,4.42765 -5.39385,8.59465 -9.42965,12.64336 -5.08547,5.10174 -9.87262,8.62292 -19.45263,14.3084 -2.52282,1.49722 -6.00076,3.56148 -7.72876,4.58724 -10.4144,6.18211 -20.48162,13.20668 -27.6621,19.30172 -1.05778,0.89788 -2.12807,1.80413 -2.37842,2.0139 -0.25034,0.20977 -0.40499,0.38178 -0.34364,0.38225 0.0614,5.1e-4 1.36098,-0.48746 2.88807,-1.08427 z m -7.81872,-6.72966 c 2.30577,-11.96678 6.47954,-22.51293 12.43844,-31.429 4.12759,-6.17595 8.29942,-10.9525 16.85179,-19.29456 6.08006,-5.93053 8.03226,-8.00656 11.0848,-11.7879 1.17214,-1.452 2.29032,-2.77208 2.48481,-2.93352 0.73374,-0.60904 1.79765,-0.18283 1.79765,0.72014 0,0.54151 -0.409,1.10195 -3.71803,5.09469 -1.83131,2.2097 -4.43469,4.93583 -10.1398,10.61791 -4.22174,4.20468 -8.51559,8.61568 -9.54187,9.8022 -7.60252,8.78946 -12.52107,17.31776 -15.90217,27.57281 -0.75739,2.29717 -1.98053,6.58516 -1.98053,6.94311 0,0.0961 0.41885,-0.53414 0.93077,-1.40047 4.87909,-8.2568 12.5658,-16.38993 22.5985,-23.91096 2.41388,-1.80957 5.9281,-4.25412 9.68353,-6.73605 3.12648,-2.06626 4.79022,-3.53317 6.69991,-5.90733 2.75564,-3.42582 3.88519,-5.36964 6.85679,-11.79968 1.16589,-2.52282 3.413,-7.14797 4.99356,-10.27813 3.94119,-7.80515 5.74633,-12.30144 7.07744,-17.628586 0.58102,-2.325224 0.92198,-4.456655 0.71294,-4.456655 -0.26962,0 -1.44516,0.727921 -4.93373,3.055087 -4.94038,3.295654 -7.44194,4.799734 -13.82417,8.311904 -9.7941,5.38973 -13.75136,7.9577 -18.81069,12.20673 -15.9276,13.60793 -24.19004,36.37736 -25.79179,53.80956 -0.35459,4.29669 -0.50127,9.11897 -0.33972,11.16919 0.0755,0.9582 0.16582,1.55106 0.20073,1.31746 0.0349,-0.23359 0.29178,-1.60967 0.57084,-3.05795 z m -7.50697,-3.1707 c -4.40007,-7.67137 -8.62071,-13.33224 -13.659057,-18.31994 -3.691717,-3.6546 -7.525815,-6.43473 -13.598397,-9.86026 -5.265452,-2.97024 -5.581183,-3.1727 -5.765571,-3.69715 -0.204721,-0.58228 0.0094,-0.98685 0.641467,-1.21211 0.375827,-0.13393 0.724487,-0.0203 2.190926,0.71385 4.774587,2.39043 10.863136,6.21112 14.31557,8.98332 6.170792,4.95496 12.947742,13.46399 18.043882,22.6556 0.49214,0.88765 0.89562,1.56305 0.89663,1.50088 0.005,-0.25862 -1.42823,-7.07275 -2.06539,-9.82532 -5.366,-23.18128 -13.827555,-38.22415 -26.673399,-47.41966 -4.999183,-3.57858 -9.012132,-5.54447 -21.219134,-10.39494 -3.403247,-1.35228 -7.251789,-2.92543 -8.552315,-3.49587 -1.300527,-0.57045 -2.381419,-1.01822 -2.401984,-0.99504 -0.02057,0.0232 0.453621,0.73017 1.053744,1.57111 1.442608,2.02148 3.526042,5.49434 4.696897,7.82922 1.699029,3.38813 2.537163,5.49987 5.974253,15.05257 2.491923,6.92579 4.431856,11.00965 7.732008,16.27704 2.147332,3.42736 5.533621,7.83707 8.02321,10.44801 7.681413,5.5515 17.456208,9.52215 24.38684,15.31885 1.72958,1.46836 6.83857,6.50832 6.83857,6.74618 0,0.089 0.0444,0.11742 0.0986,0.0632 0.0542,-0.0542 -0.37659,-0.92701 -0.95734,-1.93954 z m 6.37228,-17.64039 c 1.84402,-9.10311 4.99479,-17.68868 9.22419,-25.13506 1.27155,-2.23869 4.13303,-6.48669 5.89614,-8.75309 1.63195,-2.04887 1.68441,-1.52464 1.54157,-3.90739 -0.40133,-6.69532 -1.24776,-9.68005 -5.22833,-18.43688 -2.16261,-4.757496 -3.37672,-7.748489 -5.30996,-13.081257 -0.81295,-2.242501 -1.53796,-4.140992 -1.61112,-4.21887 -0.0731,-0.07788 -0.49705,0.801287 -0.942,1.953694 -2.12069,5.492594 -3.51787,8.628854 -7.17728,16.110923 -4.1612,8.50803 -5.73443,12.72857 -6.90801,18.53223 -0.75829,3.74993 -0.99951,6.35015 -1.01519,10.94307 -0.0217,6.35718 0.55922,10.11695 2.15246,13.93069 1.72476,4.12849 3.63758,9.93351 4.9686,15.07859 0.35672,1.37885 0.66362,2.48736 0.68201,2.46336 0.0184,-0.024 -0.0388,-1.57262 -0.12708,-3.44138 -0.2045,-4.32707 -0.0558,-13.12671 0.29423,-17.41336 0.50491,-6.18282 1.49764,-12.25701 3.40496,-20.83354 1.43481,-6.45184 1.71693,-7.5368 2.09259,-8.04715 0.35793,-0.48628 0.86944,-0.61452 1.37402,-0.34447 0.56236,0.30097 0.44417,1.41604 -0.66335,6.25804 -3.11336,13.61131 -4.08013,20.49549 -4.36447,31.07838 -0.10253,3.81582 0.19204,14.19381 0.41323,14.55897 0.0534,0.0881 0.26771,-1.02037 0.47624,-2.46336 0.20856,-1.44299 0.58049,-3.61746 0.82655,-4.83214 z" />
  </g>
</svg>
